<svg xmlns="http://www.w3.org/2000/svg" viewBox="0 0 24 24" aria-hidden="true">
  <path fill="currentColor" d="M12 .7a11.3 11.3 0 0 0-3.57 22.02c.57.1.77-.25.77-.55v-2.17c-3.14.68-3.8-1.34-3.8-1.34-.51-1.3-1.25-1.65-1.25-1.65-1.03-.7.08-.69.08-.69 1.13.08 1.73 1.16 1.73 1.16 1.01 1.73 2.65 1.23 3.3.94.1-.73.4-1.23.72-1.52-2.5-.29-5.13-1.25-5.13-5.58 0-1.23.44-2.24 1.16-3.03-.12-.29-.5-1.44.11-2.99 0 0 .95-.3 3.11 1.16A10.8 10.8 0 0 1 12 6.08c.96 0 1.92.13 2.82.38 2.16-1.46 3.1-1.16 3.1-1.16.62 1.55.23 2.7.12 2.99.72.79 1.16 1.8 1.16 3.03 0 4.34-2.64 5.28-5.15 5.57.4.35.76 1.04.76 2.1v3.18c0 .3.2.66.78.55A11.3 11.3 0 0 0 12 .7Z"/>
</svg>